<svg width="40" height="40" viewBox="0 0 40 40" fill="none" xmlns="http://www.w3.org/2000/svg">
<mask id="path-1-inside-1_429_3137" fill="white">
<path d="M40 20C40 31.0457 31.0457 40 20 40C8.9543 40 0 31.0457 0 20C0 8.9543 8.9543 0 20 0C31.0457 0 40 8.9543 40 20Z"/>
</mask>
<path d="M28.3564 20.3498C28.5496 20.1525 28.5463 19.836 28.349 19.6428L25.1339 16.4943C24.9366 16.3011 24.62 16.3044 24.4268 16.5017C24.2336 16.699 24.2369 17.0155 24.4342 17.2087L27.2921 20.0074L24.4935 22.8653C24.3002 23.0626 24.3036 23.3791 24.5009 23.5723C24.6982 23.7656 25.0147 23.7622 25.2079 23.5649L28.3564 20.3498ZM13.0052 20.657L28.0044 20.5L27.9939 19.5L12.9948 19.6571L13.0052 20.657ZM39 20C39 30.4934 30.4934 39 20 39V41C31.598 41 41 31.598 41 20H39ZM20 39C9.50659 39 1 30.4934 1 20H-1C-1 31.598 8.40202 41 20 41V39ZM1 20C1 9.50659 9.50659 1 20 1V-1C8.40202 -1 -1 8.40202 -1 20H1ZM20 1C30.4934 1 39 9.50659 39 20H41C41 8.40202 31.598 -1 20 -1V1Z" fill="#7DBB38" mask="url(#path-1-inside-1_429_3137)"/>
</svg>
