<svg width="30" height="30" viewBox="0 0 30 30" fill="none" xmlns="http://www.w3.org/2000/svg">
<path d="M10.5751 15.8875L17.6501 22.95C17.7663 23.0672 17.9045 23.1602 18.0569 23.2236C18.2092 23.2871 18.3726 23.3198 18.5376 23.3198C18.7026 23.3198 18.866 23.2871 19.0183 23.2236C19.1706 23.1602 19.3089 23.0672 19.4251 22.95C19.6579 22.7158 19.7886 22.399 19.7886 22.0688C19.7886 21.7385 19.6579 21.4217 19.4251 21.1875L13.2376 14.9375L19.4251 8.75002C19.6579 8.51581 19.7886 8.199 19.7886 7.86877C19.7886 7.53853 19.6579 7.22172 19.4251 6.98752C19.3093 6.86941 19.1713 6.77544 19.0189 6.71107C18.8666 6.6467 18.703 6.6132 18.5376 6.61252C18.3722 6.6132 18.2086 6.6467 18.0563 6.71107C17.9039 6.77544 17.7659 6.86941 17.6501 6.98752L10.5751 14.05C10.4482 14.1671 10.3469 14.3091 10.2777 14.4673C10.2084 14.6254 10.1727 14.7961 10.1727 14.9688C10.1727 15.1414 10.2084 15.3121 10.2777 15.4703C10.3469 15.6284 10.4482 15.7705 10.5751 15.8875Z" fill="#F1F1F1"/>
</svg>
