<svg width="21" height="19" fill="none" xmlns="http://www.w3.org/2000/svg"><path d="M8.417 10.542h4.166a1.042 1.042 0 0 0 0-2.084H8.417a1.042 1.042 0 0 0 0 2.084ZM17.79.125H3.208a3.125 3.125 0 0 0-1.041 6.063v9.562a3.125 3.125 0 0 0 3.125 3.125h10.416a3.125 3.125 0 0 0 3.125-3.125V6.187A3.125 3.125 0 0 0 17.792.125ZM16.75 15.75a1.042 1.042 0 0 1-1.042 1.042H5.292A1.042 1.042 0 0 1 4.25 15.75V6.375h12.5v9.375ZM17.79 4.292H3.208a1.042 1.042 0 0 1 0-2.084h14.583a1.042 1.042 0 0 1 0 2.084Z" fill="#fff"/></svg>