<svg width="21" height="21" fill="none" xmlns="http://www.w3.org/2000/svg"><path fill-rule="evenodd" clip-rule="evenodd" d="M5.292 14.667h10.416a5.208 5.208 0 0 1 5.209 5.208 1.042 1.042 0 0 1-2.077.122l-.012-.306a3.125 3.125 0 0 0-2.936-2.936l-.183-.005H5.292a3.125 3.125 0 0 0-3.125 3.125 1.042 1.042 0 0 1-2.084 0c0-2.8 2.211-5.085 4.983-5.204l.226-.004h10.416H5.293ZM10.5.083a6.25 6.25 0 1 1 0 12.5 6.25 6.25 0 0 1 0-12.5Zm0 2.084a4.167 4.167 0 1 0 0 8.333 4.167 4.167 0 0 0 0-8.333Z" fill="#fff"/></svg>