<svg width="25" height="24" fill="none" xmlns="http://www.w3.org/2000/svg"><path fill-rule="evenodd" clip-rule="evenodd" d="M12.132 2.646a.536.536 0 0 1 .736 0l5.209 5a.486.486 0 0 1 .112.545.522.522 0 0 1-.48.309H15.84l4.319 4.146a.485.485 0 0 1 .113.545.521.521 0 0 1-.481.309h-3.77l5.145 4.116a.487.487 0 0 1 .156.554.52.52 0 0 1-.49.33h-5.729V21a.51.51 0 0 1-.52.5.51.51 0 0 1-.522-.5v-3c0-.276.234-.5.521-.5h4.812l-5.145-4.116a.487.487 0 0 1-.156-.554.52.52 0 0 1 .49-.33h3.95l-4.319-4.146a.485.485 0 0 1-.113-.545.521.521 0 0 1 .481-.309h1.868L12.5 3.707 8.549 7.5h1.868c.21 0 .4.122.48.309a.485.485 0 0 1-.112.545L6.465 12.5h3.952a.52.52 0 0 1 .49.33.487.487 0 0 1-.157.554L5.605 17.5h4.812a.51.51 0 0 1 .52.5v2a.51.51 0 0 1-.52.5.51.51 0 0 1-.521-.5v-1.5h-5.73a.52.52 0 0 1-.49-.33.487.487 0 0 1 .157-.554L8.978 13.5h-3.77c-.21 0-.4-.122-.48-.309a.486.486 0 0 1 .112-.545L9.16 8.5H7.291c-.211 0-.401-.122-.482-.309a.485.485 0 0 1 .113-.545l5.209-5Z" fill="#C4C4C4"/></svg>