<svg width="32" height="32" viewBox="0 0 32 32" fill="none" xmlns="http://www.w3.org/2000/svg">
<path d="M27.267 24.7254L4.76708 24.7924C4.43556 24.7933 4.11801 24.926 3.88429 25.1611C3.65057 25.3962 3.51982 25.7145 3.52081 26.0461C3.52179 26.3776 3.65443 26.6951 3.88955 26.9289C4.12467 27.1626 4.443 27.2933 4.77452 27.2923L27.2744 27.2254C27.6059 27.2244 27.9235 27.0918 28.1572 26.8567C28.3909 26.6215 28.5217 26.3032 28.5207 25.9717C28.5197 25.6402 28.3871 25.3226 28.152 25.0889C27.9168 24.8552 27.5985 24.7244 27.267 24.7254ZM4.71501 7.29243L17.215 7.25524C17.5465 7.25425 17.864 7.12161 18.0977 6.8865C18.3315 6.65138 18.4622 6.33304 18.4612 6.00153C18.4602 5.67001 18.3276 5.35246 18.0925 5.11873C17.8574 4.88501 17.539 4.75426 17.2075 4.75525L4.70758 4.79244C4.37606 4.79343 4.05851 4.92607 3.82479 5.16118C3.59106 5.3963 3.46031 5.71464 3.4613 6.04615C3.46229 6.37767 3.59493 6.69522 3.83004 6.92895C4.06516 7.16267 4.3835 7.29342 4.71501 7.29243ZM4.74477 17.2924L27.2447 17.2254C27.5762 17.2245 27.8937 17.0918 28.1275 16.8567C28.3612 16.6216 28.4919 16.3032 28.4909 15.9717C28.49 15.6402 28.3573 15.3227 28.1222 15.0889C27.8871 14.8552 27.5687 14.7245 27.2372 14.7255L4.73733 14.7924C4.40581 14.7934 4.08826 14.926 3.85454 15.1611C3.62082 15.3963 3.49007 15.7146 3.49105 16.0461C3.49204 16.3776 3.62468 16.6952 3.8598 16.9289C4.09491 17.1626 4.41325 17.2934 4.74477 17.2924ZM4.72989 12.2924L27.2298 12.2255C27.5613 12.2245 27.8789 12.0918 28.1126 11.8567C28.3463 11.6216 28.4771 11.3033 28.4761 10.9718C28.4751 10.6402 28.3424 10.3227 28.1073 10.089C27.8722 9.85524 27.5539 9.72449 27.2224 9.72548L4.72245 9.79242C4.39093 9.7934 4.07338 9.92604 3.83966 10.1612C3.60594 10.3963 3.47519 10.7146 3.47618 11.0461C3.47716 11.3777 3.6098 11.6952 3.84492 11.9289C4.08004 12.1626 4.39837 12.2934 4.72989 12.2924ZM4.75964 22.2924L27.2595 22.2254C27.5911 22.2244 27.9086 22.0918 28.1423 21.8567C28.3761 21.6216 28.5068 21.3032 28.5058 20.9717C28.5048 20.6402 28.3722 20.3226 28.1371 20.0889C27.902 19.8552 27.5836 19.7244 27.2521 19.7254L4.7522 19.7924C4.42069 19.7934 4.10314 19.926 3.86941 20.1611C3.63569 20.3962 3.50494 20.7146 3.50593 21.0461C3.50692 21.3776 3.63956 21.6952 3.87467 21.9289C4.10979 22.1626 4.42812 22.2933 4.75964 22.2924Z" fill="#F1F1F1"/>
</svg>
