<svg width="187" height="31" viewBox="0 0 187 31" fill="none" xmlns="http://www.w3.org/2000/svg">
<path d="M185.428 4.14623C185.486 4.20303 185.369 4.37342 185.136 4.37342C184.904 4.37342 184.904 4.31662 184.787 4.20303L183.913 3.12388H183.506V4.20303C183.506 4.31662 183.448 4.37342 183.273 4.37342H183.215C183.098 4.37342 182.982 4.37342 182.982 4.20303V1.36317C182.982 1.19278 183.098 1.13599 183.273 1.13599H184.205C185.02 1.13599 185.428 1.47677 185.428 2.10154C185.428 2.61271 185.078 2.95349 184.496 3.06709L185.428 4.14623ZM184.205 2.66951C184.671 2.66951 184.904 2.44232 184.904 2.10154C184.904 1.70396 184.671 1.53357 184.146 1.53357H183.448V2.66951H184.205Z" fill="#7BBC38"/>
<path d="M185.428 4.14623C185.486 4.20303 185.369 4.37342 185.136 4.37342C184.904 4.37342 184.904 4.31662 184.787 4.20303L183.913 3.12388H183.506V4.20303C183.506 4.31662 183.448 4.37342 183.273 4.37342H183.215C183.098 4.37342 182.982 4.37342 182.982 4.20303V1.36317C182.982 1.19278 183.098 1.13599 183.273 1.13599H184.205C185.02 1.13599 185.428 1.47677 185.428 2.10154C185.428 2.61271 185.078 2.95349 184.496 3.06709L185.428 4.14623ZM184.205 2.66951C184.671 2.66951 184.904 2.44232 184.904 2.10154C184.904 1.70396 184.671 1.53357 184.146 1.53357H183.448V2.66951H184.205Z" fill="#7BBC38"/>
<path d="M184.146 5.56611C182.574 5.56611 181.293 4.31657 181.293 2.78305C181.293 1.24953 182.574 0 184.146 0C185.719 0 187 1.24953 187 2.78305C187 4.31657 185.719 5.56611 184.146 5.56611ZM184.146 0.454376C182.807 0.454376 181.759 1.47672 181.759 2.78305C181.759 4.08939 182.807 5.11173 184.146 5.11173C185.486 5.11173 186.534 4.08939 186.534 2.78305C186.534 1.47672 185.486 0.454376 184.146 0.454376Z" fill="#7BBC38"/>
<path d="M184.146 5.56611C182.574 5.56611 181.293 4.31657 181.293 2.78305C181.293 1.24953 182.574 0 184.146 0C185.719 0 187 1.24953 187 2.78305C187 4.31657 185.719 5.56611 184.146 5.56611ZM184.146 0.454376C182.807 0.454376 181.759 1.47672 181.759 2.78305C181.759 4.08939 182.807 5.11173 184.146 5.11173C185.486 5.11173 186.534 4.08939 186.534 2.78305C186.534 1.47672 185.486 0.454376 184.146 0.454376Z" fill="#7BBC38"/>
<path d="M55.6747 3.86209C50.7828 3.80529 47.6962 6.92913 47.5797 11.1889C47.6379 15.5055 50.6663 18.5725 55.5582 18.6293C60.4502 18.6861 63.5367 15.5623 63.6532 11.3025C63.595 6.98593 60.5666 3.86209 55.6747 3.86209ZM55.6165 16.8686C51.831 16.8686 49.6763 14.3695 49.6763 11.1889C49.6763 8.00827 51.8893 5.566 55.6747 5.566C59.4601 5.566 61.6149 8.06507 61.6149 11.2457C61.5567 14.4263 59.4019 16.9254 55.6165 16.8686Z" fill="#7BBC38"/>
<path fill-rule="evenodd" clip-rule="evenodd" d="M75.7666 12.3249C76.4072 12.2113 76.7567 12.0409 76.8149 12.0409C78.562 11.4161 79.4356 9.93941 79.4356 8.4059C79.4356 6.02042 77.6885 4.20291 73.6119 4.20291L68.6034 4.14612C68.0793 4.14612 67.6134 4.60049 67.6134 5.11167L67.5552 17.7206C67.5552 18.2318 67.9628 18.6294 68.487 18.6294C69.0111 18.6294 69.477 18.2318 69.477 17.7206L69.5352 12.9497H73.9613C74.0195 13.0633 74.136 13.2336 74.1942 13.3472L76.9896 18.0614L77.0479 18.175L77.2226 18.4022C77.5138 18.743 77.9797 18.7998 78.3873 18.5726C78.795 18.2886 78.9697 17.7774 78.6785 17.3798L78.5038 17.1526L75.7666 12.3249ZM73.4954 11.189H69.5935L69.6517 5.96362H73.4371C76.582 5.96362 77.572 7.04277 77.5138 8.51949C77.5138 10.2802 75.8831 11.189 73.4954 11.189Z" fill="#7BBC38"/>
<path fill-rule="evenodd" clip-rule="evenodd" d="M85.3758 8.12198C85.3758 6.58846 87.0647 5.7933 89.2195 5.7933C90.5007 5.7933 92.0731 6.70205 92.9467 7.09963C93.0632 7.15643 93.1796 7.15643 93.2961 7.15643C93.8202 7.15643 94.1697 6.70205 94.1697 6.30447C94.1697 5.7933 93.8785 5.62291 93.5873 5.45252C92.539 4.99814 91.1413 4.03259 89.0448 4.03259C85.4341 4.03259 83.454 5.90689 83.454 8.23557C83.3958 13.2905 92.539 11.6434 92.539 14.7104C92.539 16.5279 90.9084 17.0391 88.7536 17.0391C86.89 17.0391 85.5505 15.676 84.9682 15.3352C84.8517 15.2784 84.677 15.2784 84.5605 15.2784C84.0364 15.2784 83.687 15.676 83.687 16.1304C83.687 16.5279 83.9781 16.7551 84.2693 16.9823C85.3176 17.7207 86.8318 18.7998 88.9283 18.8566C92.2478 18.8566 94.4026 17.2095 94.4609 14.8808C94.4609 9.42831 85.3758 11.6434 85.3758 8.12198Z" fill="#7BBC38"/>
<path d="M134.179 17.1528L126.55 17.096V12.5522L133.363 12.609C133.888 12.609 134.295 12.2683 134.295 11.7571C134.295 11.2459 133.888 10.8483 133.363 10.8483L126.55 10.7915V6.24777L134.179 6.30457C134.703 6.30457 135.111 5.96378 135.111 5.45261C135.111 4.94144 134.703 4.54386 134.179 4.54386L125.56 4.48706C125.035 4.48706 124.57 4.94144 124.57 5.45261L124.628 17.8912C124.628 18.4023 125.035 18.7999 125.56 18.7999L134.179 18.8567C134.703 18.8567 135.111 18.5159 135.111 18.0048C135.111 17.5504 134.703 17.1528 134.179 17.1528Z" fill="#7BBC38"/>
<path d="M148.68 17.2094L141.051 17.1526V12.6089L147.864 12.6657C148.389 12.6657 148.796 12.3249 148.796 11.8137C148.796 11.3025 148.389 10.905 147.864 10.905L141.051 10.8482V6.30441L148.68 6.36121C149.204 6.36121 149.612 6.02042 149.612 5.50925C149.612 4.99808 149.204 4.6005 148.68 4.6005L140.061 4.5437C139.536 4.5437 139.071 4.99808 139.071 5.50925L139.012 18.0046C139.012 18.5158 139.42 18.9134 139.944 18.9134L148.563 18.9701C149.087 18.9701 149.495 18.6294 149.495 18.1182C149.612 17.607 149.204 17.2094 148.68 17.2094Z" fill="#7BBC38"/>
<path d="M158.755 4.65735H154.795C154.329 4.65735 153.921 5.11172 153.921 5.6229L153.863 18.1182C153.863 18.6294 154.271 19.027 154.736 19.027H158.697C163.414 19.027 165.685 15.3352 165.685 11.8706C165.685 8.40595 163.414 4.71415 158.755 4.65735ZM158.464 17.2663H155.61L155.668 6.41806H158.522C161.783 6.41806 163.88 8.68994 163.88 11.8706C163.821 15.108 161.725 17.3231 158.464 17.2663Z" fill="#7BBC38"/>
<path fill-rule="evenodd" clip-rule="evenodd" d="M40.6496 12.0977C41.2902 11.9841 41.6396 11.8137 41.6978 11.8137C43.445 11.189 44.3185 9.71224 44.3185 8.17872C44.3185 5.79325 42.5714 3.97574 38.4948 3.97574L33.4864 3.91895C32.9622 3.91895 32.4963 4.37332 32.4963 4.8845L32.4381 17.4934C32.4381 18.0046 32.8458 18.4022 33.3699 18.4022C33.894 18.4022 34.3599 18.0046 34.3599 17.4934L34.4182 12.7225H38.8442C38.9024 12.8361 39.0189 13.0065 39.0772 13.1201L41.8726 17.8342L41.9308 17.9478L42.1055 18.175C42.3967 18.5158 42.8626 18.5726 43.2702 18.3454C43.6779 18.0614 43.8526 17.5502 43.5614 17.1527L43.3867 16.9255L40.6496 12.0977ZM38.3783 10.9618H34.4764L34.5347 5.73645H38.3201C41.4649 5.73645 42.4549 6.81559 42.3967 8.29232C42.3967 10.053 40.766 10.9618 38.3783 10.9618Z" fill="#7BBC38"/>
<path fill-rule="evenodd" clip-rule="evenodd" d="M23.9356 11.9842C24.5762 11.8706 24.9256 11.7002 24.9839 11.7002C26.731 11.0754 27.6045 9.59872 27.6045 8.0652C27.6045 5.67972 25.8574 3.86222 21.7808 3.86222L16.7724 3.80542C16.2483 3.80542 15.7824 4.2598 15.7824 4.77097L15.7241 17.3799C15.7241 17.8911 16.1318 18.2887 16.6559 18.2887C17.1801 18.2887 17.646 17.8911 17.646 17.3799L17.7042 12.609H22.1302C22.1885 12.7226 22.3049 12.8929 22.3632 13.0065L25.1586 17.7207L25.2168 17.8343L25.3915 18.0615C25.6827 18.4023 26.1486 18.4591 26.5563 18.2319C26.9639 17.9479 27.1386 17.4367 26.8474 17.0391L26.731 16.7551L23.9356 11.9842ZM21.6061 10.8483H17.7042L17.7624 5.62292H21.5479C24.6927 5.62292 25.6827 6.70207 25.6245 8.17879C25.6245 9.9395 24.0521 10.8483 21.6061 10.8483Z" fill="#7BBC38"/>
<path fill-rule="evenodd" clip-rule="evenodd" d="M111.117 8.23551C111.117 6.70198 112.806 5.90683 114.96 5.90683C116.242 5.90683 117.814 6.81558 118.688 7.21316C118.804 7.26996 118.921 7.26995 119.037 7.26995C119.561 7.26995 119.911 6.81558 119.911 6.418C119.911 5.90683 119.619 5.73644 119.328 5.56604C118.28 5.11167 116.882 4.14612 114.786 4.14612C111.175 4.14612 109.195 6.02042 109.195 8.3491C109.137 13.404 118.28 11.7569 118.28 14.824C118.28 16.6415 116.649 17.1526 114.495 17.1526C112.631 17.1526 111.292 15.7895 110.709 15.4487C110.593 15.3919 110.418 15.3919 110.301 15.3919C109.777 15.3919 109.428 15.7895 109.428 16.2439C109.428 16.6415 109.719 16.8687 110.01 17.0958C111.059 17.8342 112.573 18.9134 114.669 18.9701C117.989 18.9701 120.144 17.323 120.202 14.9944C120.202 9.54184 111.117 11.8137 111.117 8.23551Z" fill="#7BBC38"/>
<path fill-rule="evenodd" clip-rule="evenodd" d="M170.519 8.63309C170.519 7.09957 172.208 6.30441 174.362 6.30441C175.644 6.30441 177.216 7.21316 178.09 7.61074C178.206 7.66754 178.322 7.66754 178.439 7.66754C178.963 7.66754 179.312 7.21316 179.312 6.81558C179.312 6.30441 179.021 6.13402 178.73 5.96363C177.682 5.50925 176.284 4.5437 174.188 4.5437C170.577 4.5437 168.597 6.418 168.597 8.74668C168.539 13.8016 177.682 12.1545 177.682 15.2215C177.682 17.039 176.051 17.5502 173.896 17.5502C172.033 17.5502 170.693 16.1871 170.111 15.8463C169.995 15.7895 169.82 15.7895 169.703 15.7895C169.179 15.7895 168.83 16.1871 168.83 16.6415C168.83 17.039 169.121 17.2662 169.412 17.4934C170.46 18.2318 171.975 19.3109 174.071 19.3677C177.391 19.3677 179.545 17.7206 179.604 15.3919C179.604 9.93942 170.46 12.1545 170.519 8.63309Z" fill="#7BBC38"/>
<path fill-rule="evenodd" clip-rule="evenodd" d="M9.55092 16.4143L1.98007 16.3575V11.8137L8.79383 11.8705C9.31797 11.8705 9.72563 11.5297 9.72563 11.0186C9.72563 10.5074 9.31797 10.1098 8.79383 10.1098L3.49424 10.053H1.98007C0.757085 10.053 0 10.337 0 11.5865V17.1526C0 17.6638 0.407661 18.0614 0.931797 18.0614L9.55092 18.1182C10.0751 18.1182 10.4827 17.7774 10.4827 17.2662C10.4827 16.8119 10.0751 16.4143 9.55092 16.4143ZM2.03831 5.50924H3.55247L9.66739 5.56604C10.1915 5.56604 10.5992 5.22526 10.5992 4.71408C10.5992 4.20291 10.1915 3.80533 9.66739 3.80533L1.04827 3.74854C0.524136 3.74854 0.0582373 4.20291 0.0582373 4.71408C0.0582373 5.67963 1.3977 5.50924 2.03831 5.50924Z" fill="#7BBC38"/>
<path d="M143.555 28.2848C143.555 29.364 144.312 29.8752 145.127 29.8752C145.71 29.8752 146.117 29.7616 146.408 29.648L146.525 30.2159C146.234 30.3295 145.71 30.4999 145.011 30.4999C143.613 30.4999 142.74 29.5912 142.74 28.228C142.74 26.8649 143.555 25.7858 144.894 25.7858C146.408 25.7858 146.816 27.0921 146.816 27.8873C146.816 28.0576 146.816 28.1712 146.816 28.2848H143.555ZM146.001 27.7169C146.001 27.2057 145.768 26.4105 144.836 26.4105C143.962 26.4105 143.613 27.1489 143.555 27.7169H146.001Z" fill="#7BBC38"/>
<path d="M147.748 29.5344C147.981 29.7048 148.447 29.8752 148.854 29.8752C149.437 29.8752 149.728 29.5912 149.728 29.1936C149.728 28.796 149.495 28.5688 148.854 28.3416C148.039 28.0576 147.632 27.6033 147.632 27.0921C147.632 26.3537 148.214 25.7858 149.204 25.7858C149.67 25.7858 150.077 25.8994 150.31 26.0698L150.077 26.6377C149.903 26.5241 149.553 26.3537 149.146 26.3537C148.622 26.3537 148.389 26.6377 148.389 26.9785C148.389 27.3761 148.68 27.5465 149.262 27.7169C150.077 28.0008 150.485 28.3984 150.485 29.08C150.485 29.8752 149.845 30.4431 148.738 30.4431C148.214 30.4431 147.748 30.3295 147.457 30.1591L147.748 29.5344Z" fill="#7BBC38"/>
<path d="M152.64 24.5931V25.8995H153.863V26.5242H152.64V28.9665C152.64 29.5345 152.815 29.8185 153.28 29.8185C153.513 29.8185 153.688 29.8185 153.746 29.7617L153.805 30.3864C153.63 30.4432 153.397 30.5 153.047 30.5C152.64 30.5 152.349 30.3864 152.116 30.1592C151.883 29.9321 151.766 29.5345 151.766 28.9665V26.5242H151.067V25.8995H151.766V24.8203L152.64 24.5931Z" fill="#7BBC38"/>
<path d="M154.562 29.932C154.562 29.5912 154.795 29.364 155.144 29.364C155.493 29.364 155.726 29.5912 155.726 29.932C155.726 30.2728 155.493 30.5 155.144 30.5C154.795 30.5 154.562 30.216 154.562 29.932Z" fill="#7BBC38"/>
<path d="M158.464 30.3865V29.5346L159.279 28.853C160.618 27.6603 161.317 26.9787 161.317 26.2971C161.317 25.786 161.026 25.3884 160.269 25.3884C159.745 25.3884 159.279 25.6724 158.93 25.8996L158.522 24.8772C158.988 24.5364 159.687 24.2524 160.56 24.2524C161.958 24.2524 162.715 25.0476 162.715 26.1267C162.715 27.1491 161.958 27.9442 161.084 28.7394L160.502 29.1938H162.831V30.3297H158.464V30.3865Z" fill="#7BBC38"/>
<path d="M168.48 27.3195C168.48 29.1938 167.723 30.5001 166.151 30.5001C164.52 30.5001 163.821 29.0802 163.821 27.3763C163.821 25.6156 164.578 24.2524 166.209 24.2524C167.84 24.2524 168.48 25.6724 168.48 27.3195ZM165.277 27.3763C165.277 28.7394 165.627 29.421 166.151 29.421C166.675 29.421 167.024 28.7394 167.024 27.3763C167.024 26.0131 166.733 25.3316 166.151 25.3316C165.627 25.3316 165.219 25.9564 165.277 27.3763Z" fill="#7BBC38"/>
<path d="M173.897 27.3195C173.897 29.1938 173.14 30.5001 171.567 30.5001C169.937 30.5001 169.238 29.0802 169.238 27.3763C169.238 25.6156 169.995 24.2524 171.625 24.2524C173.256 24.2524 173.897 25.6724 173.897 27.3195ZM170.694 27.3763C170.694 28.7394 171.043 29.421 171.567 29.421C172.15 29.421 172.441 28.7394 172.441 27.3763C172.441 26.0131 172.15 25.3316 171.567 25.3316C171.043 25.3316 170.694 25.9564 170.694 27.3763Z" fill="#7BBC38"/>
<path d="M175.236 29.3642C175.411 29.3642 175.585 29.3642 175.877 29.3642C176.343 29.3642 176.75 29.1938 177.1 28.9666C177.507 28.6826 177.74 28.285 177.857 27.8307C177.566 28.1146 177.158 28.285 176.634 28.285C175.585 28.285 174.712 27.5467 174.712 26.4107C174.712 25.218 175.702 24.2524 177.041 24.2524C178.614 24.2524 179.371 25.4452 179.371 26.8651C179.371 28.1146 178.963 29.0234 178.264 29.6482C177.682 30.1593 176.867 30.4433 175.877 30.5001C175.644 30.5001 175.353 30.5001 175.236 30.5001V29.3642ZM176.11 26.3539C176.11 26.8651 176.401 27.3195 176.983 27.3195C177.391 27.3195 177.624 27.1491 177.798 26.9219C177.857 26.8651 177.857 26.7515 177.857 26.5811C177.857 25.9564 177.624 25.3316 176.925 25.3316C176.459 25.2748 176.051 25.7292 176.11 26.3539Z" fill="#7BBC38"/>
</svg>
