<svg width="30" height="30" viewBox="0 0 30 30" fill="none" xmlns="http://www.w3.org/2000/svg">
<path d="M15 30C23.2843 30 30 23.2843 30 15C30 6.71573 23.2843 0 15 0C6.71573 0 0 6.71573 0 15C0 23.2843 6.71573 30 15 30Z" fill="url(#paint0_linear_328_278)"/>
<path d="M12.25 21.875C11.7641 21.875 11.8466 21.6915 11.679 21.2288L10.25 16.5257L21.25 10" fill="#C8DAEA"/>
<path d="M12.25 21.875C12.625 21.875 12.7907 21.7035 13 21.5L15 19.5552L12.5053 18.0509" fill="#A9C9DD"/>
<path d="M12.5049 18.0512L18.5499 22.5174C19.2397 22.898 19.7376 22.7009 19.9094 21.8769L22.37 10.2816C22.622 9.27153 21.985 8.81343 21.3251 9.11303L6.87635 14.6844C5.89009 15.08 5.89584 15.6302 6.69658 15.8754L10.4045 17.0327L18.9886 11.6171C19.3938 11.3713 19.7657 11.5034 19.4605 11.7744" fill="url(#paint1_linear_328_278)"/>
<defs>
<linearGradient id="paint0_linear_328_278" x1="11.2515" y1="1.251" x2="3.7515" y2="18.75" gradientUnits="userSpaceOnUse">
<stop stop-color="#37AEE2"/>
<stop offset="1" stop-color="#1E96C8"/>
</linearGradient>
<linearGradient id="paint1_linear_328_278" x1="13.1222" y1="15.9214" x2="14.7249" y2="21.1057" gradientUnits="userSpaceOnUse">
<stop stop-color="#EFF7FC"/>
<stop offset="1" stop-color="white"/>
</linearGradient>
</defs>
</svg>
