<svg width="30" height="30" viewBox="0 0 30 30" fill="none" xmlns="http://www.w3.org/2000/svg">
<path d="M15 0C23.2843 0 30 6.71573 30 15C30 23.2843 23.2843 30 15 30C6.71573 30 0 23.2843 0 15C0 6.71573 6.71573 0 15 0Z" fill="#7F4DA0"/>
<path d="M18.9965 13.099C18.9236 12.5063 18.7414 12.0409 18.4179 11.6287C17.9978 11.0979 17.461 10.78 16.6662 10.5915C16.1482 10.4658 15.9389 10.4803 15.7516 10.6514C15.5771 10.8117 15.543 11.1331 15.6764 11.3412C15.7702 11.4923 15.8783 11.5464 16.1792 11.6055C16.5799 11.6792 16.8568 11.7749 17.1087 11.9189C17.6434 12.2276 17.8924 12.7107 17.919 13.4928C17.9315 13.86 17.9632 13.9729 18.0915 14.1031C18.3292 14.3412 18.7522 14.2949 18.9317 14.01C18.9976 13.9026 19.0076 13.8559 19.0146 13.6065C19.0191 13.4522 19.0125 13.2224 18.9965 13.099Z" fill="white"/>
<path d="M21.0903 13.7673C20.9847 11.9514 20.2745 10.4905 19.0034 9.46261C18.2872 8.88504 17.4215 8.48788 16.4726 8.29474C16.125 8.22566 15.485 8.16967 15.3752 8.2017C15.2716 8.23135 15.1251 8.34354 15.0598 8.44499C14.9907 8.555 14.9751 8.80063 15.034 8.94271C15.1291 9.18023 15.3061 9.26414 15.8015 9.30749C16.5653 9.37431 17.3531 9.64266 17.9484 10.0399C18.628 10.4923 19.1682 11.111 19.5177 11.838C19.8196 12.4626 20.0054 13.3628 20.0002 14.1689C19.9985 14.4605 20.0435 14.6251 20.1608 14.7455C20.3377 14.9306 20.5957 14.9711 20.8234 14.8481C21.0757 14.7154 21.1347 14.4825 21.0903 13.7673Z" fill="white"/>
<path d="M23.4078 20.7602C23.3723 20.6564 23.2894 20.4963 23.2302 20.4044C22.8572 19.8411 20.853 18.2726 19.8523 17.7597C19.281 17.4662 18.8577 17.3684 18.5438 17.4602C18.2064 17.5552 18.0287 17.7122 17.4633 18.4149C17.2353 18.6966 17.0015 18.9605 16.9393 19.002C16.7853 19.1087 16.4834 19.1947 16.2702 19.1947C15.7758 19.1917 14.8788 18.8715 14.189 18.4505C13.6532 18.1244 12.9664 17.5403 12.4394 16.9622C11.8177 16.2832 11.3944 15.6843 11.0599 15.0083C10.6277 14.1396 10.5181 13.6088 10.6987 13.2204C10.7431 13.1226 10.8023 13.0188 10.8289 12.9862C10.8556 12.9566 11.1339 12.7282 11.4417 12.4792C12.0457 11.9989 12.1434 11.8892 12.2559 11.5601C12.398 11.142 12.3595 10.7151 12.1404 10.2852C11.9717 9.95901 11.5306 9.24744 11.2109 8.78789C10.7875 8.18307 9.73361 6.89037 9.52338 6.71539C9.14446 6.40707 8.65899 6.35367 8.1231 6.56125C7.55771 6.78066 6.49784 7.63455 6.04489 8.2305C5.63635 8.7701 5.47949 9.15256 5.45579 9.6566C5.43508 10.0717 5.47059 10.2436 5.68967 10.7744C7.40376 14.9371 9.96153 18.2608 13.4756 20.8996C15.3111 22.2782 17.2146 23.3278 19.1892 24.0454C20.3408 24.4634 20.8411 24.4841 21.4302 24.1402C21.6789 23.992 22.2947 23.3604 22.6381 22.9009C23.2065 22.1359 23.4167 21.7831 23.4759 21.5014C23.5174 21.3087 23.4848 20.9737 23.4078 20.7602Z" fill="white"/>
<path d="M23.2222 14.1843C23.1843 13.1572 23.0113 12.3147 22.6507 11.3753C22.2947 10.4514 21.9344 9.8484 21.2539 9.03289C20.6105 8.26825 20.1108 7.83166 19.3183 7.34567C18.2126 6.66855 16.867 6.22045 15.359 6.03201C14.8447 5.96614 14.7284 5.97085 14.5706 6.07612C14.2649 6.27555 14.2689 6.77297 14.5756 6.96941C14.6772 7.0319 14.7673 7.05467 15.1786 7.10851C15.8101 7.19353 16.2162 7.27365 16.698 7.40511C18.5874 7.9216 20.0403 8.97731 21.0117 10.5445C21.8246 11.8507 22.162 13.1571 22.1141 14.8255C22.0974 15.3895 22.1095 15.4888 22.1958 15.6243C22.3609 15.8769 22.7963 15.9269 23.0197 15.7173C23.1587 15.5895 23.1849 15.4936 23.2123 15.0109C23.2254 14.759 23.2282 14.3873 23.2222 14.1843Z" fill="white"/>
</svg>
