<svg xmlns="http://www.w3.org/2000/svg">
    <defs> </defs>
    <symbol id="nav__tree" width="25" height="24" viewBox="0 0 25 24" fill="none" xmlns="http://www.w3.org/2000/svg">
        <path fill-rule="evenodd" clip-rule="evenodd" d="M12.1317 2.64645C12.3351 2.45118 12.6648 2.45118 12.8682 2.64645L18.0766 7.64645C18.2255 7.78945 18.2701 8.0045 18.1895 8.19134C18.1089 8.37818 17.9189 8.5 17.7083 8.5H15.8407L20.1599 12.6464C20.3089 12.7894 20.3534 13.0045 20.2728 13.1913C20.1922 13.3782 20.0023 13.5 19.7916 13.5H16.0218L21.1667 17.6159C21.3352 17.7507 21.3977 17.9723 21.323 18.1702C21.2484 18.3681 21.0526 18.5 20.8333 18.5H15.1041V21C15.1041 21.2761 14.8709 21.5 14.5833 21.5C14.2956 21.5 14.0624 21.2761 14.0624 21V18C14.0624 17.7239 14.2956 17.5 14.5833 17.5H19.3947L14.2499 13.3841C14.0814 13.2493 14.0189 13.0277 14.0936 12.8298C14.1682 12.6319 14.364 12.5 14.5833 12.5H18.5342L14.215 8.35355C14.066 8.21055 14.0215 7.9955 14.1021 7.80866C14.1827 7.62182 14.3726 7.5 14.5833 7.5H16.4509L12.4999 3.70711L8.54902 7.5H10.4166C10.6273 7.5 10.8172 7.62182 10.8978 7.80866C10.9784 7.9955 10.9339 8.21055 10.7849 8.35355L6.46568 12.5H10.4166C10.6359 12.5 10.8317 12.6319 10.9063 12.8298C10.981 13.0277 10.9185 13.2493 10.75 13.3841L5.60518 17.5H10.4166C10.7043 17.5 10.9374 17.7239 10.9374 18V20C10.9374 20.2761 10.7043 20.5 10.4166 20.5C10.129 20.5 9.89578 20.2761 9.89578 20V18.5H4.16661C3.94733 18.5 3.75154 18.3681 3.67689 18.1702C3.60224 17.9723 3.66473 17.7507 3.83318 17.6159L8.97804 13.5H5.20828C4.99762 13.5 4.80771 13.3782 4.72709 13.1913C4.64648 13.0045 4.69104 12.7894 4.83999 12.6464L9.15921 8.5H7.29161C7.08095 8.5 6.89104 8.37818 6.81043 8.19134C6.72981 8.0045 6.77437 7.78945 6.92333 7.64645L12.1317 2.64645Z" fill="#C4C4C4"/>
    </symbol> 
    <symbol id= "card__activities-liked" width="31" height="31" viewBox="0 0 31 31" fill="inherit" xmlns="http://www.w3.org/2000/svg">
        <circle cx="15.5" cy="15.5" r="15.5" fill="inherit"/>
        <path d="M24 9.20834C22.8958 8.10127 21.4321 7.42557 19.8733 7.30331C18.3144 7.18105 16.7633 7.62029 15.5 8.54168C14.1746 7.55588 12.525 7.10888 10.8832 7.29067C9.2415 7.47247 7.72962 8.26957 6.65205 9.52145C5.57448 10.7733 5.01127 12.387 5.07583 14.0375C5.14039 15.688 5.82793 17.2528 6.99999 18.4167L13.4687 24.8958C14.0104 25.4289 14.74 25.7277 15.5 25.7277C16.26 25.7277 16.9896 25.4289 17.5312 24.8958L24 18.4167C25.2162 17.193 25.8989 15.5378 25.8989 13.8125C25.8989 12.0872 25.2162 10.432 24 9.20834ZM22.5312 16.9792L16.0625 23.4479C15.9889 23.5223 15.9013 23.5813 15.8047 23.6215C15.7082 23.6618 15.6046 23.6825 15.5 23.6825C15.3954 23.6825 15.2918 23.6618 15.1953 23.6215C15.0987 23.5813 15.0111 23.5223 14.9375 23.4479L8.46874 16.9479C7.65182 16.1129 7.19438 14.9911 7.19438 13.8229C7.19438 12.6547 7.65182 11.533 8.46874 10.6979C9.3012 9.87604 10.4239 9.41519 11.5937 9.41519C12.7636 9.41519 13.8863 9.87604 14.7187 10.6979C14.8156 10.7956 14.9308 10.8731 15.0577 10.9259C15.1847 10.9788 15.3208 11.006 15.4583 11.006C15.5958 11.006 15.732 10.9788 15.8589 10.9259C15.9859 10.8731 16.1011 10.7956 16.1979 10.6979C17.0304 9.87604 18.1531 9.41519 19.3229 9.41519C20.4927 9.41519 21.6155 9.87604 22.4479 10.6979C23.2761 11.522 23.7485 12.6377 23.7641 13.8059C23.7797 14.9742 23.3371 16.102 22.5312 16.9479V16.9792Z" fill="#F1F1F1"/>
    </symbol>
    <symbol id="card__activities-comparison" width="31" height="31" viewBox="0 0 31 31" fill="inherit" xmlns="http://www.w3.org/2000/svg">
        <circle cx="15.5" cy="15.5" r="15.5" fill="inherit"/>
        <path d="M26.9642 17.8226C26.9603 17.7638 26.9508 17.7055 26.936 17.6484L24.6313 11.5114C25.0508 11.2401 25.3957 10.8682 25.6347 10.4296C25.8738 9.99095 25.9993 9.49952 26 9C26 8.73478 25.8946 8.48043 25.7071 8.29289C25.5196 8.10536 25.2652 8 25 8C24.7348 8 24.4804 8.10536 24.2929 8.29289C24.1054 8.48043 24 8.73478 24 9C23.9999 9.22285 23.9254 9.43929 23.7884 9.61499C23.6513 9.79069 23.4595 9.91559 23.2433 9.96987C23.0272 10.0242 22.7991 10.0047 22.5953 9.91465C22.3915 9.82457 22.2235 9.66902 22.1182 9.47266C21.8616 9.01717 21.4863 8.63972 21.0324 8.38042C20.5784 8.12111 20.0627 7.98965 19.54 8H17V7C17 6.73478 16.8946 6.48043 16.7071 6.29289C16.5196 6.10536 16.2652 6 16 6C15.7348 6 15.4804 6.10536 15.2929 6.29289C15.1054 6.48043 15 6.73478 15 7V8H12.46C11.9373 7.98965 11.4216 8.12111 10.9676 8.38042C10.5137 8.63972 10.1384 9.01717 9.88184 9.47266C9.77647 9.66902 9.60855 9.82457 9.40471 9.91465C9.20088 10.0047 8.97281 10.0242 8.75668 9.96987C8.54054 9.91559 8.34872 9.79069 8.21165 9.61499C8.07457 9.43929 8.00008 9.22285 8 9C8 8.73478 7.89464 8.48043 7.70711 8.29289C7.51957 8.10536 7.26522 8 7 8C6.73478 8 6.48043 8.10536 6.29289 8.29289C6.10536 8.48043 6 8.73478 6 9C6.00065 9.49952 6.12621 9.99095 6.36525 10.4296C6.60429 10.8682 6.94922 11.2401 7.36865 11.5114L5.064 17.6484C5.04921 17.7055 5.03977 17.7638 5.03581 17.8226C5.01825 17.8805 5.00626 17.9399 5 18C5 18.0093 5.00269 18.0178 5.00275 18.0271C5.00305 18.0403 5.00575 18.0524 5.00665 18.0655C5.02222 19.1144 5.4498 20.115 6.197 20.8512C6.94421 21.5874 7.95105 22.0001 9 22.0001C10.049 22.0001 11.0558 21.5874 11.803 20.8512C12.5502 20.115 12.9778 19.1144 12.9934 18.0655C12.9942 18.0524 12.9969 18.0403 12.9972 18.0271C12.9973 18.0178 13 18.0093 13 18C12.9938 17.9399 12.9818 17.8805 12.9642 17.8226C12.9603 17.7638 12.9508 17.7055 12.936 17.6484L10.6287 11.5042C11.0524 11.2338 11.4011 10.8608 11.6426 10.4199C11.7298 10.2842 11.8514 10.1739 11.9949 10.1002C12.1384 10.0264 12.2989 9.99189 12.46 10H15V24H12C11.7348 24 11.4804 24.1054 11.2929 24.2929C11.1054 24.4804 11 24.7348 11 25C11 25.2652 11.1054 25.5196 11.2929 25.7071C11.4804 25.8946 11.7348 26 12 26H20C20.2652 26 20.5196 25.8946 20.7071 25.7071C20.8946 25.5196 21 25.2652 21 25C21 24.7348 20.8946 24.4804 20.7071 24.2929C20.5196 24.1054 20.2652 24 20 24H17V10H19.54C19.7011 9.9919 19.8616 10.0265 20.0051 10.1002C20.1486 10.1739 20.2701 10.2842 20.3574 10.4199C20.5988 10.8608 20.9475 11.2338 21.3713 11.5042L19.064 17.6484C19.0492 17.7055 19.0398 17.7638 19.0358 17.8226C19.0182 17.8805 19.0063 17.9399 19 18C19 18.0093 19.0027 18.0178 19.0028 18.0271C19.0031 18.0403 19.0057 18.0524 19.0066 18.0655C19.0222 19.1144 19.4498 20.115 20.197 20.8512C20.9442 21.5874 21.951 22.0001 23 22.0001C24.049 22.0001 25.0558 21.5874 25.803 20.8512C26.5502 20.115 26.9778 19.1144 26.9933 18.0655C26.9942 18.0524 26.997 18.0403 26.9972 18.0271C26.9973 18.0178 27 18.0093 27 18C26.9938 17.9399 26.9818 17.8805 26.9642 17.8226ZM9 12.8555L10.5564 17H7.4436L9 12.8555ZM10.7227 19C10.5462 19.3011 10.2948 19.5515 9.99293 19.7267C9.69107 19.9019 9.34901 19.9961 9 20C8.64903 19.9999 8.30428 19.9074 8.00036 19.7319C7.69644 19.5563 7.44405 19.3039 7.26855 19H10.7227ZM23 12.8555L24.5564 17H21.4436L23 12.8555ZM23 20C22.649 19.9999 22.3043 19.9074 22.0004 19.7319C21.6964 19.5563 21.4441 19.3039 21.2686 19H24.7227C24.5462 19.3011 24.2948 19.5515 23.9929 19.7267C23.6911 19.9019 23.349 19.9961 23 20Z" fill="#F1F1F1"/>
    </symbol>
    <symbol id="card__rate-icon" width="15" height="17" viewBox="0 0 15 17" fill="inherit" xmlns="http://www.w3.org/2000/svg">
        <path d="M0.162695 5.23543C0.115422 5.22185 0.0645553 5.23668 0.0319787 5.27353C-0.000597838 5.31038 -0.00907458 5.36268 0.0101953 5.40793C0.910195 7.40543 2.4977 9.55043 4.4977 10.7504C3.22494 10.7322 1.96667 11.0222 0.830195 11.5954C0.778899 11.6304 0.7482 11.6884 0.7482 11.7504C0.7482 11.8125 0.778899 11.8705 0.830195 11.9054C2.1277 12.5429 3.6927 12.9054 5.1477 12.6804C4.82674 13.1916 4.60614 13.7592 4.4977 14.3529C4.49131 14.4 4.51064 14.4469 4.54835 14.4759C4.58605 14.5048 4.63636 14.5113 4.6802 14.4929C5.6127 14.2004 6.5627 13.5904 6.9952 12.6804V15.9109C6.9952 16.0489 7.10712 16.1609 7.2452 16.1609C7.38327 16.1609 7.4952 16.0489 7.4952 15.9109V12.6804C7.9277 13.5879 8.8777 14.2004 9.81019 14.4929C9.85403 14.5113 9.90434 14.5048 9.94204 14.4759C9.97975 14.4469 9.99908 14.4 9.99269 14.3529C9.88502 13.7594 9.66527 13.1918 9.34519 12.6804C10.7977 12.9079 12.3627 12.5429 13.6627 11.9054C13.714 11.8705 13.7447 11.8125 13.7447 11.7504C13.7447 11.6884 13.714 11.6304 13.6627 11.5954C12.527 11.0225 11.2696 10.7326 9.99769 10.7504C11.9777 9.55793 13.5802 7.41543 14.4977 5.40793C14.517 5.36268 14.5085 5.31038 14.4759 5.27353C14.4433 5.23668 14.3925 5.22185 14.3452 5.23543C12.1727 5.94543 9.81769 7.35043 8.4177 9.26293H8.4052C9.1927 6.31293 8.5777 2.80293 7.3727 0.0779295C7.35334 0.0330068 7.30911 0.00390625 7.2602 0.00390625C7.21128 0.00390625 7.16705 0.0330068 7.1477 0.0779295C5.9402 2.82793 5.3302 6.32793 6.1152 9.26293H6.1027C4.7027 7.36793 2.3552 5.95043 0.162695 5.23543Z" fill="inherit"/>
    </symbol>
    <symbol id="card__package-trophy" width="24" height="24" viewBox="0 0 24 24" fill="none" xmlns="http://www.w3.org/2000/svg">
        <path d="M21 4H18V3C18 2.73478 17.8946 2.48043 17.7071 2.29289C17.5196 2.10536 17.2652 2 17 2H7C6.73478 2 6.48043 2.10536 6.29289 2.29289C6.10536 2.48043 6 2.73478 6 3V4H3C2.73478 4 2.48043 4.10536 2.29289 4.29289C2.10536 4.48043 2 4.73478 2 5V8C2 9.06087 2.42143 10.0783 3.17157 10.8284C3.92172 11.5786 4.93913 12 6 12H7.54C8.44453 13.0091 9.66406 13.6824 11 13.91V16H10C9.20435 16 8.44129 16.3161 7.87868 16.8787C7.31607 17.4413 7 18.2044 7 19V21C7 21.2652 7.10536 21.5196 7.29289 21.7071C7.48043 21.8946 7.73478 22 8 22H16C16.2652 22 16.5196 21.8946 16.7071 21.7071C16.8946 21.5196 17 21.2652 17 21V19C17 18.2044 16.6839 17.4413 16.1213 16.8787C15.5587 16.3161 14.7956 16 14 16H13V13.91C14.3359 13.6824 15.5555 13.0091 16.46 12H18C19.0609 12 20.0783 11.5786 20.8284 10.8284C21.5786 10.0783 22 9.06087 22 8V5C22 4.73478 21.8946 4.48043 21.7071 4.29289C21.5196 4.10536 21.2652 4 21 4ZM6 10C5.46957 10 4.96086 9.78929 4.58579 9.41421C4.21071 9.03914 4 8.53043 4 8V6H6V8C6.0022 8.68171 6.12056 9.35806 6.35 10H6ZM14 18C14.2652 18 14.5196 18.1054 14.7071 18.2929C14.8946 18.4804 15 18.7348 15 19V20H9V19C9 18.7348 9.10536 18.4804 9.29289 18.2929C9.48043 18.1054 9.73478 18 10 18H14ZM16 8C16 9.06087 15.5786 10.0783 14.8284 10.8284C14.0783 11.5786 13.0609 12 12 12C10.9391 12 9.92172 11.5786 9.17157 10.8284C8.42143 10.0783 8 9.06087 8 8V4H16V8ZM20 8C20 8.53043 19.7893 9.03914 19.4142 9.41421C19.0391 9.78929 18.5304 10 18 10H17.65C17.8794 9.35806 17.9978 8.68171 18 8V6H20V8Z" fill="#C6B83A"/>
    </symbol>
    <symbol id="order-products__remove-icon" width="18" height="20" viewBox="0 0 18 20" fill="none" xmlns="http://www.w3.org/2000/svg">
    <path d="M7 16C7.26522 16 7.51957 15.8946 7.70711 15.7071C7.89464 15.5196 8 15.2652 8 15V9C8 8.73478 7.89464 8.48043 7.70711 8.29289C7.51957 8.10536 7.26522 8 7 8C6.73478 8 6.48043 8.10536 6.29289 8.29289C6.10536 8.48043 6 8.73478 6 9V15C6 15.2652 6.10536 15.5196 6.29289 15.7071C6.48043 15.8946 6.73478 16 7 16ZM17 4H13V3C13 2.20435 12.6839 1.44129 12.1213 0.87868C11.5587 0.316071 10.7956 0 10 0H8C7.20435 0 6.44129 0.316071 5.87868 0.87868C5.31607 1.44129 5 2.20435 5 3V4H1C0.734784 4 0.48043 4.10536 0.292893 4.29289C0.105357 4.48043 0 4.73478 0 5C0 5.26522 0.105357 5.51957 0.292893 5.70711C0.48043 5.89464 0.734784 6 1 6H2V17C2 17.7956 2.31607 18.5587 2.87868 19.1213C3.44129 19.6839 4.20435 20 5 20H13C13.7956 20 14.5587 19.6839 15.1213 19.1213C15.6839 18.5587 16 17.7956 16 17V6H17C17.2652 6 17.5196 5.89464 17.7071 5.70711C17.8946 5.51957 18 5.26522 18 5C18 4.73478 17.8946 4.48043 17.7071 4.29289C17.5196 4.10536 17.2652 4 17 4ZM7 3C7 2.73478 7.10536 2.48043 7.29289 2.29289C7.48043 2.10536 7.73478 2 8 2H10C10.2652 2 10.5196 2.10536 10.7071 2.29289C10.8946 2.48043 11 2.73478 11 3V4H7V3ZM14 17C14 17.2652 13.8946 17.5196 13.7071 17.7071C13.5196 17.8946 13.2652 18 13 18H5C4.73478 18 4.48043 17.8946 4.29289 17.7071C4.10536 17.5196 4 17.2652 4 17V6H14V17ZM11 16C11.2652 16 11.5196 15.8946 11.7071 15.7071C11.8946 15.5196 12 15.2652 12 15V9C12 8.73478 11.8946 8.48043 11.7071 8.29289C11.5196 8.10536 11.2652 8 11 8C10.7348 8 10.4804 8.10536 10.2929 8.29289C10.1054 8.48043 10 8.73478 10 9V15C10 15.2652 10.1054 15.5196 10.2929 15.7071C10.4804 15.8946 10.7348 16 11 16Z" fill="#D46C69"/>
    </symbol>
</svg>