<svg width="35" height="35" viewBox="0 0 35 35" fill="none" xmlns="http://www.w3.org/2000/svg">
<path d="M17.5 35C27.165 35 35 27.165 35 17.5C35 7.83502 27.165 0 17.5 0C7.83502 0 0 7.83502 0 17.5C0 27.165 7.83502 35 17.5 35Z" fill="#25D366"/>
<path fill-rule="evenodd" clip-rule="evenodd" d="M18.077 27.2362H18.0727C16.3311 27.2356 14.6198 26.7987 13.0999 25.9696L7.5835 27.4167L9.05978 22.0244C8.14913 20.4462 7.66996 18.6561 7.67074 16.8221C7.67302 11.0846 12.3412 6.41669 18.0769 6.41669C20.8606 6.41789 23.4734 7.50159 25.438 9.46855C27.4027 11.4354 28.4841 14.0498 28.483 16.8303C28.4807 22.5665 23.8144 27.2339 18.077 27.2362ZM13.3555 24.0858L13.6713 24.2732C14.9993 25.0612 16.5215 25.4782 18.0735 25.4788H18.077C22.8441 25.4788 26.7241 21.5988 26.726 16.8297C26.7269 14.5186 25.8281 12.3456 24.1951 10.7107C22.5622 9.07588 20.3906 8.1751 18.0804 8.1743C13.3096 8.1743 9.42958 12.054 9.42769 16.8227C9.42702 18.457 9.88429 20.0485 10.7501 21.4256L10.9557 21.7528L10.082 24.9445L13.3555 24.0858ZM22.9634 19.0707C23.1447 19.1583 23.2672 19.2175 23.3195 19.3048C23.3845 19.4132 23.3845 19.9338 23.1679 20.5413C22.9511 21.1486 21.9124 21.7029 21.4128 21.7775C20.9649 21.8445 20.398 21.8725 19.7751 21.6745C19.3975 21.5547 18.9132 21.3947 18.2928 21.1268C15.8553 20.0743 14.208 17.7118 13.8967 17.2652C13.8749 17.234 13.8596 17.2121 13.8511 17.2007L13.849 17.1979C13.7114 17.0143 12.7894 15.7842 12.7894 14.511C12.7894 13.3133 13.3777 12.6856 13.6485 12.3966C13.6671 12.3768 13.6841 12.3586 13.6994 12.3419C13.9377 12.0816 14.2194 12.0165 14.3928 12.0165C14.5661 12.0165 14.7396 12.0181 14.8911 12.0257C14.9098 12.0267 14.9292 12.0265 14.9494 12.0264C15.1009 12.0255 15.2898 12.0244 15.4761 12.4721C15.5478 12.6443 15.6527 12.8997 15.7634 13.1691C15.9871 13.7138 16.2343 14.3156 16.2778 14.4027C16.3428 14.5328 16.3861 14.6846 16.2995 14.8582C16.2865 14.8842 16.2744 14.9088 16.2629 14.9323C16.1978 15.0652 16.1499 15.1629 16.0395 15.2919C15.996 15.3427 15.9511 15.3973 15.9062 15.452C15.8168 15.561 15.7273 15.6699 15.6494 15.7475C15.5193 15.8771 15.3838 16.0178 15.5354 16.2781C15.6871 16.5384 16.2089 17.3899 16.9819 18.0793C17.8128 18.8205 18.535 19.1337 18.901 19.2925C18.9725 19.3235 19.0304 19.3486 19.0729 19.3699C19.3328 19.5001 19.4845 19.4783 19.6362 19.3048C19.7878 19.1313 20.2861 18.5455 20.4594 18.2853C20.6328 18.0251 20.8062 18.0684 21.0444 18.1551C21.2828 18.242 22.5612 18.8709 22.8212 19.0011C22.8719 19.0265 22.9194 19.0494 22.9634 19.0707Z" fill="#FDFDFD"/>
</svg>
