<svg width="35" height="35" viewBox="0 0 35 35" fill="none" xmlns="http://www.w3.org/2000/svg">
<path d="M17.5 0C27.165 0 35 7.83502 35 17.5C35 27.165 27.165 35 17.5 35C7.83502 35 0 27.165 0 17.5C0 7.83502 7.83502 0 17.5 0Z" fill="#7F4DA0"/>
<path d="M22.1624 15.2822C22.0773 14.5907 21.8647 14.0477 21.4873 13.5668C20.9972 12.9476 20.3709 12.5767 19.4436 12.3568C18.8393 12.2101 18.5952 12.227 18.3766 12.4266C18.173 12.6136 18.1333 12.9886 18.2889 13.2314C18.3983 13.4077 18.5245 13.4708 18.8755 13.5397C19.343 13.6257 19.6661 13.7374 19.96 13.9054C20.5837 14.2655 20.8742 14.8291 20.9053 15.7416C20.9198 16.17 20.9568 16.3017 21.1065 16.4537C21.3838 16.7314 21.8774 16.6774 22.0868 16.345C22.1636 16.2197 22.1753 16.1652 22.1834 15.8743C22.1888 15.6942 22.181 15.4261 22.1624 15.2822Z" fill="white"/>
<path d="M24.6054 16.0618C24.4822 13.9433 23.6535 12.2389 22.1706 11.0397C21.335 10.3659 20.3251 9.90253 19.218 9.67719C18.8125 9.5966 18.0658 9.53128 17.9377 9.56864C17.8169 9.60324 17.6459 9.73412 17.5697 9.85248C17.4891 9.98083 17.471 10.2674 17.5397 10.4332C17.6507 10.7103 17.8571 10.8082 18.4351 10.8587C19.3262 10.9367 20.2453 11.2498 20.9398 11.7133C21.7327 12.241 22.3629 12.9628 22.7706 13.811C23.1229 14.5397 23.3396 15.5899 23.3336 16.5304C23.3316 16.8705 23.3841 17.0626 23.5209 17.2031C23.7274 17.419 24.0283 17.4662 24.2939 17.3228C24.5883 17.168 24.6572 16.8962 24.6054 16.0618Z" fill="white"/>
<path d="M27.3089 24.2203C27.2674 24.0992 27.1707 23.9124 27.1017 23.8051C26.6665 23.148 24.3282 21.3181 23.1608 20.7197C22.4943 20.3772 22.0004 20.2631 21.6342 20.3703C21.2405 20.481 21.0333 20.6643 20.3736 21.4841C20.1077 21.8127 19.8348 22.1206 19.7623 22.169C19.5827 22.2935 19.2304 22.3939 18.9817 22.3939C18.4049 22.3904 17.3584 22.0168 16.5536 21.5256C15.9285 21.1452 15.1273 20.4637 14.5124 19.7892C13.7871 18.9971 13.2933 18.2984 12.9029 17.5097C12.3987 16.4962 12.2709 15.877 12.4816 15.4238C12.5334 15.3097 12.6025 15.1887 12.6335 15.1506C12.6646 15.116 12.9893 14.8496 13.3485 14.5591C14.0531 13.9987 14.167 13.8707 14.2983 13.4868C14.4641 12.999 14.4192 12.5009 14.1636 11.9994C13.9667 11.6189 13.4521 10.7887 13.0791 10.2526C12.5852 9.54694 11.3556 8.03879 11.1104 7.83465C10.6683 7.47494 10.1019 7.41264 9.47671 7.65482C8.81708 7.9108 7.58057 8.907 7.05212 9.60228C6.57549 10.2318 6.3925 10.678 6.36484 11.2661C6.34068 11.7503 6.38211 11.9509 6.6377 12.5701C8.63747 17.4266 11.6215 21.3043 15.7213 24.3829C17.8627 25.9913 20.0835 27.2158 22.3872 28.0529C23.7307 28.5406 24.3144 28.5648 25.0017 28.1636C25.2918 27.9906 26.0102 27.2539 26.4109 26.7177C27.074 25.8253 27.3192 25.4136 27.3883 25.085C27.4367 24.8602 27.3987 24.4693 27.3089 24.2203Z" fill="white"/>
<path d="M27.0924 16.5484C27.0482 15.3501 26.8465 14.3671 26.4257 13.2712C26.0104 12.1933 25.59 11.4898 24.7961 10.5384C24.0455 9.6463 23.4626 9.13694 22.5379 8.56995C21.248 7.77998 19.6781 7.2572 17.9187 7.03735C17.3188 6.96051 17.183 6.966 16.999 7.08882C16.6423 7.32148 16.647 7.90181 17.0048 8.13099C17.1233 8.20389 17.2284 8.23045 17.7083 8.29327C18.445 8.39245 18.9188 8.48593 19.4809 8.6393C21.6852 9.24187 23.3803 10.4735 24.5136 12.3019C25.4619 13.8258 25.8556 15.3499 25.7997 17.2964C25.7803 17.9544 25.7944 18.0703 25.895 18.2284C26.0876 18.523 26.5956 18.5813 26.8562 18.3368C27.0184 18.1878 27.049 18.0759 27.0809 17.5127C27.0962 17.2189 27.0995 16.7851 27.0924 16.5484Z" fill="white"/>
</svg>
