<svg width="35" height="35" viewBox="0 0 35 35" fill="none" xmlns="http://www.w3.org/2000/svg">
<path d="M0 17.5C0 7.83502 7.83502 0 17.5 0C27.165 0 35 7.83502 35 17.5C35 27.165 27.165 35 17.5 35C7.83502 35 0 27.165 0 17.5Z" fill="#6FD454"/>
<path d="M12.375 8.78571C12.5875 8.76786 12.7697 8.81964 12.8875 9.01429C13.1518 9.44287 13.4179 9.87145 13.6697 10.3107C13.9607 10.8179 14.2286 11.3393 14.5143 11.8518C14.5875 11.9893 14.6893 12.1143 14.775 12.2465C14.8536 12.3715 14.9286 12.5001 15.0018 12.6251C15.1518 12.909 15.1447 13.1947 14.9215 13.4215C14.6036 13.7465 14.2536 14.0483 13.9161 14.3572C13.634 14.6162 13.3411 14.8644 13.0661 15.1287C12.8518 15.3358 12.7964 15.5948 12.9411 15.868C13.1643 16.2858 13.3857 16.7037 13.6304 17.1126C14.5375 18.6252 15.6965 19.9109 17.1608 20.902C17.7251 21.2859 18.3126 21.6377 18.9055 21.9734C19.4644 22.2895 19.6823 22.2359 20.1162 21.752C20.5198 21.3038 20.9091 20.8484 21.3109 20.3966C21.4073 20.2877 21.5234 20.1913 21.6359 20.0984C21.8644 19.9055 22.1145 19.8841 22.377 20.0163C22.4502 20.052 22.5287 20.0841 22.593 20.1305C23.2895 20.6288 24.0681 20.9806 24.8038 21.4038C25.1984 21.6306 25.5824 21.8734 25.9699 22.1056C26.1788 22.2288 26.2627 22.4092 26.2485 22.6574C26.2092 23.3556 26.0931 24.0413 25.6877 24.6306C25.5181 24.8753 25.277 25.0896 25.0341 25.2628C24.3609 25.7342 23.6091 26.0253 22.8091 26.2039C22.0823 26.3664 21.3573 26.3074 20.6609 26.0896C19.3162 25.6753 17.9912 25.2003 16.7715 24.4806C15.6643 23.8253 14.6572 23.0342 13.725 22.1502C12.5446 21.027 11.4911 19.802 10.6393 18.4073C10.0839 17.5019 9.68746 16.5269 9.32852 15.5323C9.11066 14.9322 8.89637 14.3376 8.79994 13.7019C8.68923 12.9822 8.76601 12.2893 8.99637 11.6072C9.20352 10.9911 9.46245 10.4018 9.85353 9.87502C10.1607 9.46608 10.5446 9.16608 11.0411 9.03215C11.4393 8.92679 11.8411 8.84286 12.2411 8.75C12.2929 8.79107 12.3339 8.79107 12.375 8.78571Z" fill="white"/>
</svg>
